<?xml version="1.0" encoding="UTF-8" standalone="no"?>
<!-- Created with Inkscape (http://www.inkscape.org/) -->

<svg
   version="1.1"
   id="svg105"
   width="526.62854"
   height="156.06857"
   viewBox="0 0 526.62854 156.06857"
   sodipodi:docname="logo.svg"
   inkscape:version="1.1 (c68e22c387, 2021-05-23)"
   xmlns:inkscape="http://www.inkscape.org/namespaces/inkscape"
   xmlns:sodipodi="http://sodipodi.sourceforge.net/DTD/sodipodi-0.dtd"
   xmlns="http://www.w3.org/2000/svg"
   xmlns:svg="http://www.w3.org/2000/svg">
  <defs
     id="defs109" />
  <sodipodi:namedview
     id="namedview107"
     pagecolor="#ffffff"
     bordercolor="#666666"
     borderopacity="1.0"
     inkscape:pageshadow="2"
     inkscape:pageopacity="0.0"
     inkscape:pagecheckerboard="0"
     showgrid="false"
     inkscape:zoom="2.0279949"
     inkscape:rotation="-1"
     inkscape:cx="263.61136"
     inkscape:cy="78.41447"
     inkscape:window-width="1920"
     inkscape:window-height="1017"
     inkscape:window-x="1912"
     inkscape:window-y="-8"
     inkscape:window-maximized="1"
     inkscape:current-layer="g111" />
  <g
     inkscape:groupmode="layer"
     inkscape:label="Image"
     id="g111">
    <path
       style="fill:#efcd4b;stroke:none;stroke-width:0.2691"
       d="M 32.032074,91.528756 H 5.9293618 v 16.953314 c 0,1.84171 -0.5950961,4.91915 0.6237465,6.43418 2.2212615,2.76151 5.5975517,4.991 8.2565577,7.33163 1.721917,1.51585 3.589283,3.77387 5.651102,4.79483 1.319048,0.65311 3.405542,0.27636 4.843801,0.27636 h 10.494906 19.106114 c 2.420551,0 6.083002,0.68352 8.342102,-0.23088 2.85326,-1.15498 5.487758,-4.61076 7.803905,-6.61072 1.911142,-1.65011 5.673701,-3.92725 6.565227,-6.3443 1.120532,-3.03815 0.16227,-8.06332 0.16227,-11.30221 V 76.728249 68.117044 c 0,-1.219292 0.29574,-2.915699 -0.276628,-4.032464 -0.780667,-1.523377 -2.771732,-2.693424 -4.028978,-3.81611 -2.993196,-2.672703 -6.531323,-7.2579 -10.225796,-8.852318 -1.895817,-0.818063 -4.954409,-0.252416 -6.996607,-0.252416 H 40.105078 c -1.599263,0 -6.826532,0.829636 -7.796423,-0.623773 -0.76271,-1.142869 -0.276581,-3.69959 -0.276581,-5.02733 V 32.595828 c 0,-1.281456 -0.544335,-4.243709 0.431475,-5.219629 0.810152,-0.810125 2.830018,-0.431475 3.874126,-0.431475 H 47.10168 c 1.093085,0 3.298091,-0.413687 4.143335,0.431475 1.388562,1.388719 0.431368,7.074536 0.431368,8.98703 h 18.837004 c 1.57316,0 5.573072,0.722265 6.834337,-0.276635 0.633191,-0.501334 0.431104,-1.710131 0.431369,-2.414366 V 26.675625 18.06442 c 0,-1.179197 0.300047,-2.854102 -0.16227,-3.959673 C 76.994396,12.616623 74.919367,11.355834 73.742597,10.30516 70.595469,7.4950829 67.380531,3.7838817 63.785889,1.5797556 62.234255,0.62831129 59.621028,1.1111117 57.865689,1.1111117 H 44.141579 27.995572 c -2.132888,0 -5.253884,-0.57615627 -7.265705,0.162374 C 17.6702,2.3966792 14.537444,6.4416084 12.118665,8.6012722 10.402802,10.133313 6.9334334,12.124681 6.0917358,14.307622 5.2022984,16.614347 5.9293618,20.442539 5.9293618,22.908223 V 43.090732 58.16034 c 0,1.695868 -0.5601374,4.629598 0.2765763,6.143556 2.0042167,3.626662 7.4553969,6.645966 10.4874289,9.470978 1.195907,1.114076 2.686802,2.932116 4.3056,3.374785 4.082518,1.116497 9.755635,0.116789 13.993208,0.116789 H 47.10168 c 1.120533,0 3.574188,-0.461236 4.298067,0.623776 0.762631,1.142867 0.276636,3.699588 0.276636,5.027328 v 12.916805 c 0,1.281451 0.544389,4.243713 -0.431368,5.219733 -0.845244,0.84498 -3.05025,0.43137 -4.143335,0.43137 H 36.337675 c -1.044108,0 -3.063974,0.37862 -3.874126,-0.43137 -0.652809,-0.65283 -0.431421,-1.96335 -0.431475,-2.79783 V 91.528756 M 86.928493,1.1111117 V 127.31907 H 113.0312 V 77.266448 h 22.33531 v 50.052622 h 26.1027 V 1.1111117 h -26.1027 V 51.163736 H 113.0312 V 1.1111117 H 86.928493 m 98.221537,0.2765741 c -3.7604,1.8742226 -7.35935,6.386642 -10.49491,9.1865742 -1.16358,1.038996 -3.04701,2.211842 -3.60513,3.722759 -1.17193,3.173579 -0.16227,8.454937 -0.16227,11.840405 v 26.910013 42.78692 12.647713 c 0,1.6851 -0.42544,4.05695 0.16227,5.6511 0.5417,1.46849 2.21066,2.51259 3.33604,3.51176 2.33767,2.07529 4.71867,4.10646 7.02055,6.22159 1.14555,1.05219 2.53573,2.74617 4.01256,3.29028 2.07826,0.76533 5.32979,0.16227 7.53479,0.16227 h 17.2224 14.53142 c 1.86297,0 4.75042,0.53955 6.45841,-0.27259 3.85054,-1.83096 7.5835,-6.35184 10.764,-9.19057 1.0955,-0.97765 3.02522,-2.14582 3.60513,-3.53033 1.19238,-2.84763 0.16227,-8.13383 0.16227,-11.22553 V 76.190049 32.864928 20.217222 c 0,-1.753753 0.45558,-4.2633 -0.16227,-5.919181 -0.56806,-1.522354 -2.67377,-2.886556 -3.87424,-3.923104 -3.18856,-2.7532171 -6.68767,-7.18078 -10.49489,-8.9911942 -1.88909,-0.89822683 -5.19956,-0.2726311 -7.26571,-0.2726311 h -17.49151 -14.80051 c -1.83742,0 -4.78702,-0.55644803 -6.4584,0.2765741 M 254.84696,1.1111117 V 127.31907 h 62.70033 V 101.48546 H 280.94967 V 77.266448 h 22.60441 c 1.82719,0 6.7302,0.871078 8.18065,-0.276634 0.75885,-0.6009 0.43055,-2.373732 0.43055,-3.221667 v -8.880304 -9.687604 c 0,-0.950193 0.34984,-2.813981 -0.27716,-3.605135 -0.98761,-1.248624 -6.27273,-0.431368 -7.79584,-0.431368 H 280.94967 V 26.944724 h 36.05942 V 1.1111117 H 254.84696 M 219.32574,26.944724 v 74.540736 h -22.3353 V 26.944724 h 22.3353 m 127.55347,75.078936 v 12.10951 h -9.95671 v -4.84381 h -13.18591 v 8.07302 c 0,1.16036 -0.2691,2.71764 0.43056,3.72164 1.29707,1.85787 4.97566,5.29186 7.10425,6.07278 2.28734,0.8396 5.91213,0.16227 8.3421,0.16227 3.71627,0 9.4212,1.08582 12.91681,-0.16145 2.20392,-0.78685 5.77219,-4.16594 7.10423,-6.0736 1.03604,-1.48731 0.43057,-4.66377 0.43057,-6.41265 v -12.64771 c 0,-1.84307 0.36327,-4.128535 -0.0861,-5.920203 -0.35252,-1.406052 -1.87294,-2.302958 -2.87399,-3.235927 -1.23248,-1.147713 -2.71253,-2.952567 -4.30561,-3.561003 -2.35462,-0.898795 -6.1032,-0.199672 -8.6112,-0.199672 -1.50697,0 -6.38844,0.788463 -7.10424,-0.847128 -0.94455,-2.16814 -0.16146,-6.211368 -0.16146,-8.571377 0,-0.847665 -0.19914,-2.13504 0.62431,-2.683466 1.87563,-1.251853 7.09079,-0.276635 9.33239,-0.276635 v 4.574702 h 13.18591 c 0,-2.885291 1.13022,-8.840209 -0.43056,-11.301936 -1.1679,-1.839299 -4.9945,-5.495563 -7.10425,-6.072783 -3.85351,-1.053796 -9.18706,-0.11679 -13.1859,-0.11679 -2.3923,0 -6.12742,-0.703158 -8.34211,0.252416 -2.10166,0.906868 -5.57306,4.039193 -6.83513,5.947382 -1.33205,2.01852 -0.43057,6.768407 -0.43057,9.138909 v 11.033107 c 0,1.501847 -0.39557,3.677522 0.16146,5.088676 0.6593,1.665739 3.08658,3.118872 4.41324,4.256898 0.89611,0.76936 1.83257,1.91733 2.9601,2.33257 1.38587,0.51048 3.38259,0.16226 4.84381,0.16226 h 10.764 m 17.4915,-38.212218 v 9.418506 l 0.43058,3.221666 3.06772,0.276635 h 8.07301 v 50.590821 h 13.1859 V 76.728249 h 11.30222 c 0.51398,-4.058299 0.7481,-8.880035 0,-12.916807 h -36.05943 m 47.89983,0.199673 c -1.93214,0.73841 -6.38036,4.570128 -7.10425,6.527831 -0.63776,1.731659 -0.16145,4.356193 -0.16145,6.189303 v 13.993206 20.720715 c 0,2.62857 -0.76964,6.68176 0.16145,9.14537 0.5086,1.34524 2.27929,2.47303 3.33684,3.38823 1.2002,1.03765 2.51341,2.63881 4.03651,3.18185 1.32936,0.47441 3.17807,0.16145 4.5747,0.16145 h 9.95671 c 2.41921,0 6.08435,0.68352 8.34209,-0.23088 2.01826,-0.81699 6.47994,-4.51846 7.33568,-6.54237 0.72926,-1.72654 0.19913,-4.55775 0.19913,-6.41265 V 99.601755 79.41925 c 0,-2.538422 0.75348,-6.495808 -0.16145,-8.869809 -0.51399,-1.331239 -2.28736,-2.447196 -3.33685,-3.353795 -1.20018,-1.036575 -2.52147,-2.67028 -4.03651,-3.221936 -1.39123,-0.506716 -3.37719,-0.162268 -4.84379,-0.162268 h -9.95671 c -2.43265,0 -6.05743,-0.673287 -8.3421,0.199673 m 35.25211,-0.199673 v 63.507628 h 13.18591 v -25.29541 c 2.58874,0.19698 3.09735,3.85674 3.88043,5.92021 2.42997,6.38387 5.6215,12.78925 7.42178,19.3752 h 13.99321 l -2.50802,-8.3421 -6.91048,-17.76061 c 2.20929,-1.14556 6.13278,-4.47514 7.25762,-6.727498 1.09523,-2.190749 0.27717,-6.45168 0.27717,-8.880309 V 75.382747 c 0,-1.456907 0.35252,-3.463048 -0.16146,-4.842724 -0.7481,-1.998876 -4.95413,-5.407837 -6.83513,-6.373906 -2.17972,-1.11865 -6.19739,-0.354675 -8.61122,-0.354675 h -20.98981 m 43.32513,0 v 63.507628 h 23.6808 c 1.52311,0 6.80824,0.81726 7.79584,-0.43136 0.59471,-0.74864 0.27717,-2.44048 0.27717,-3.33603 v -9.14941 l -18.56788,-0.2691 v -12.10951 h 15.60781 V 89.106855 H 508.6084 l -4.14413,-0.431367 -0.43056,-3.336035 v -8.611204 h 13.45501 l 4.56663,-0.431368 0.27716,-3.336034 V 63.811442 H 490.8478 m -61.35483,12.916807 v 37.404921 h -11.3022 V 76.728249 h 11.3022 m 41.44143,0 v 8.880304 l -0.43056,3.221666 -2.79864,0.276636 h -6.99665 V 76.728249 h 10.22581 M 10.504064,135.32265 c -3.2781705,1.25293 -2.4219012,5.37474 -2.4219012,8.14243 0,2.99105 -1.2875098,9.13758 2.1528012,10.53312 1.119322,0.45397 2.583254,0.23089 3.767401,0.23089 1.033183,0 2.251023,0.16603 3.229201,-0.23089 3.028748,-1.22871 2.152802,-5.22619 2.152802,-7.84212 0,-3.15924 1.316975,-9.40451 -2.421901,-10.83343 -1.046906,-0.40015 -2.397763,-0.19967 -3.498302,-0.19967 -0.946667,0 -2.058239,-0.14505 -2.960101,0.19967 m 10.225803,18.90644 c 0.959289,0 2.811963,0.35144 3.605027,-0.27664 1.226532,-0.97145 0.431476,-6.03025 0.431476,-7.52727 h 0.2691 c 0.304298,1.76745 1.508575,6.52273 3.065993,7.52727 0.971613,0.62674 2.816833,0.27664 3.930611,0.27664 v -13.18591 c 0,-1.45207 0.486803,-3.97703 -0.162375,-5.29642 -0.461884,-0.93863 -2.980768,-0.93863 -3.442652,0 -0.909262,1.8479 -0.162375,5.6632 -0.162375,7.71832 -1.250321,-2.19909 -1.583708,-6.19333 -3.417331,-7.91073 -0.916178,-0.85789 -3.830316,-0.79062 -4.07762,0.6609 -0.963539,5.65542 -0.03985,12.26909 -0.03985,18.01384 m 21.79711,0 v -3.7674 c -1.220906,0 -3.437754,0.42491 -4.489128,-0.27664 -1.550824,-1.03496 -0.623774,-7.13492 -0.623774,-8.87276 0,-2.42783 1.052719,-6.47455 -2.420556,-6.17343 -2.011523,0.17437 -1.615946,2.23972 -1.615946,3.75152 v 10.764 c 0,1.0573 -0.41549,3.26957 0.276635,4.14334 0.501334,0.63319 1.710132,0.4311 2.414366,0.43137 h 6.458403 m 1.345501,0 c 0.945618,0 3.101918,0.39934 3.759867,-0.43137 0.692125,-0.87377 0.276635,-3.08604 0.276635,-4.14334 v -9.9567 c 0,-1.09389 0.358172,-2.99994 -0.276635,-3.95092 -0.57426,-0.86086 -3.100572,-1.00966 -3.597599,0 -0.677864,1.37778 -0.162268,4.04699 -0.162268,5.56553 v 5.11289 7.80391 m 5.112902,0 h 4.036501 v -7.80391 h 0.269099 c 0.305971,1.77688 1.516656,6.49796 3.072587,7.52727 0.955306,0.63186 2.822057,0.27664 3.92402,0.27664 v -13.18591 c 0,-1.45207 0.486799,-3.97703 -0.16227,-5.29642 -0.46204,-0.93863 -2.980817,-0.93863 -3.442868,0 -0.909022,1.8479 -0.16227,5.6632 -0.16227,7.71832 -1.166273,-2.18994 -1.620518,-6.22778 -3.417302,-7.91073 -0.916282,-0.85789 -3.830366,-0.79062 -4.07767,0.6609 -0.963647,5.65542 -0.03982,12.26909 -0.03982,18.01384 m 12.647703,0 h 9.41851 v -3.7674 h -5.381999 v -3.76741 h 4.574694 v -3.7674 h -4.574694 v -3.76739 c 1.777672,0 8.047171,0.10928 5.105363,-3.60514 -0.92221,-1.1644 -5.585983,-0.44079 -6.989067,-0.43109 -0.677061,0.004 -1.633972,-0.10088 -1.990534,0.6235 -0.649068,1.31939 -0.16227,3.84435 -0.16227,5.29642 v 13.18591 m 23.680813,-7.53481 v 3.76741 c -1.471436,-9.9e-4 -2.689385,0.0823 -2.9601,-1.61459 -2.225994,0 -5.540231,0.16468 -3.719231,3.45254 1.620252,2.92539 8.427672,2.81156 10.284469,0.23789 0.98652,-1.36783 0.646378,-5.28944 0.391541,-6.91938 -0.621896,-3.97917 -4.75178,-1.34927 -6.52541,-3.12264 -0.736255,-0.73625 -0.431369,-2.38718 -0.431369,-3.33602 h 2.9601 v 1.34549 c 0.959347,0 2.812092,0.35145 3.605138,-0.27664 1.584189,-1.25454 -0.33611,-3.84866 -1.452612,-4.55855 -1.421653,-0.90364 -4.879591,-0.91548 -6.458132,-0.35091 -3.330913,1.19077 -3.954149,7.92797 -1.598716,10.28313 1.549741,1.55001 3.887148,1.09227 5.904322,1.09227 m 8.611202,-7.53479 v 15.0696 h 4.036507 v -15.0696 h 3.229191 c 0,-0.95935 0.35145,-2.81211 -0.27664,-3.60514 -0.50132,-0.63319 -1.710125,-0.43109 -2.414355,-0.43137 -1.724389,-8.1e-4 -6.26788,-0.81134 -7.641633,0.27664 -0.749719,0.59363 -0.706126,3.15545 0.192399,3.5976 0.78039,0.384 2.025257,0.16227 2.874531,0.16227 m 11.302198,-3.84061 c -3.57203,1.27743 -2.691,5.417 -2.691,8.41531 0,3.07366 -1.27741,8.98444 2.42191,10.33264 1.10896,0.40418 2.60327,0.16226 3.7674,0.16226 0.93215,0 2.07045,0.16631 2.9601,-0.16226 3.03761,-1.12243 2.15279,-5.3855 2.15279,-7.91075 0,-3.21843 1.36972,-9.43034 -2.4219,-10.8345 -0.98329,-0.36383 -2.19934,-0.1986 -3.22919,-0.1986 -0.95585,0 -2.04436,-0.13159 -2.96011,0.1959 m 9.95671,18.91021 h 4.0365 v -7.53481 l 3.61106,7.25817 3.92375,0.27664 c -0.36114,-2.41194 -2.42837,-4.85295 -2.44156,-7.25521 -0.006,-1.12592 1.36705,-1.6991 1.74109,-2.70258 0.54789,-1.47008 0.59176,-5.59082 -0.11437,-6.99525 -1.42274,-2.83066 -4.92265,-2.15307 -7.52727,-2.15307 -0.85816,0 -2.59978,-0.32535 -3.06693,0.62378 -0.64907,1.31939 -0.16227,3.84435 -0.16227,5.29642 v 13.18591 m 22.60441,0 -0.27662,-3.33603 -4.7507,-0.70801 -0.62378,-3.49077 c 3.69447,0 4.8438,0.22471 4.8438,-3.7674 -3.55213,0 -4.8438,0.11356 -4.8438,-3.76739 h 5.382 l -0.27664,-3.60514 -1.87616,-0.43109 -6.79693,0.27636 -0.46876,3.75987 v 10.764 l 0.43135,4.02896 2.52873,0.27664 h 6.72751 M 15.347872,139.15949 v 11.3022 h -3.229207 v -11.3022 h 3.229201 m 94.454134,0 v 11.3022 l -2.79784,-0.27664 -0.43137,-2.95256 v -8.073 h 3.22921 m 12.3786,0 v 3.76739 c -3.01795,-2.6e-4 -2.9601,-0.99216 -2.9601,-3.76739 z"
       id="path173" />
  </g>
</svg>
